<svg width="332" height="81" viewBox="0 0 332 81" fill="none" xmlns="http://www.w3.org/2000/svg">
<path d="M33.4862 14.0308C33.8987 18.0867 33.5309 22.9163 31.8775 26.8263L32.1745 26.9995C32.2806 26.9978 32.3896 26.9995 32.4962 26.9995C43.2573 26.9995 51.9741 35.7163 51.9741 46.4775C51.9741 49.1209 51.4437 51.6525 50.4892 53.9518L60.4137 63.0844C63.308 58.2266 64.9677 52.539 64.9677 46.4775C64.9677 28.8797 50.9565 14.5599 33.4862 14.0308ZM20.0967 16.4562C8.30698 21.3307 7.91987e-07 32.9334 0 46.4775C0 59.2762 7.42648 70.3388 18.1909 75.6325V59.7185C16.9421 58.3691 15.878 56.8504 15.0477 55.1893C12.8433 51.2934 11.3988 45.1869 11.4096 38.7308C11.4231 30.6066 13.5185 22.0568 20.0967 16.4562Z" fill="white"/>
<path fill-rule="evenodd" clip-rule="evenodd" d="M20.1677 56.4189C13.5753 48.9644 13.2555 40.6357 15.0824 35.8662C18.5254 26.8779 31.0038 22.7697 32.8817 9.3374C33.3778 42.7103 16.8867 31.3619 20.1677 56.4189Z" fill="white"/>
<path fill-rule="evenodd" clip-rule="evenodd" d="M13.2147 35.7581C12.1604 15.0886 29.2739 17.6673 31.4911 0C34.3927 21.2593 15.4454 23.5591 13.2147 35.7581Z" fill="white"/>
<path d="M24.372 62.4148C24.3721 62.6885 24.3183 62.9595 24.2136 63.2124C24.109 63.4653 23.9555 63.695 23.7621 63.8886C23.5686 64.0821 23.3389 64.2357 23.086 64.3404C22.8332 64.4452 22.5622 64.4991 22.2885 64.4991C22.0149 64.4991 21.7439 64.4452 21.4911 64.3404C21.2382 64.2357 21.0085 64.0821 20.815 63.8886C20.6216 63.695 20.4681 63.4653 20.3634 63.2124C20.2588 62.9595 20.205 62.6885 20.2051 62.4148C20.205 62.1412 20.2588 61.8701 20.3634 61.6173C20.4681 61.3644 20.6216 61.1346 20.815 60.9411C21.0085 60.7475 21.2382 60.594 21.4911 60.4892C21.7439 60.3845 22.0149 60.3306 22.2885 60.3306C22.5622 60.3306 22.8332 60.3845 23.086 60.4892C23.3389 60.594 23.5686 60.7475 23.7621 60.9411C23.9555 61.1346 24.109 61.3644 24.2136 61.6173C24.3183 61.8701 24.3721 62.1412 24.372 62.4148Z" fill="white"/>
<path d="M24.372 67.7C24.3721 67.9737 24.3183 68.2447 24.2136 68.4975C24.109 68.7504 23.9555 68.9802 23.7621 69.1737C23.5686 69.3673 23.3389 69.5208 23.086 69.6256C22.8332 69.7303 22.5622 69.7842 22.2885 69.7842C22.0149 69.7842 21.7439 69.7303 21.4911 69.6256C21.2382 69.5208 21.0085 69.3673 20.815 69.1737C20.6216 68.9802 20.4681 68.7504 20.3634 68.4975C20.2588 68.2447 20.205 67.9737 20.2051 67.7C20.205 67.4263 20.2588 67.1553 20.3634 66.9024C20.4681 66.6496 20.6216 66.4198 20.815 66.2262C21.0085 66.0327 21.2382 65.8791 21.4911 65.7744C21.7439 65.6696 22.0149 65.6157 22.2885 65.6157C22.5622 65.6157 22.8332 65.6696 23.086 65.7744C23.3389 65.8791 23.5686 66.0327 23.7621 66.2262C23.9555 66.4198 24.109 66.6496 24.2136 66.9024C24.3183 67.1553 24.3721 67.4263 24.372 67.7Z" fill="white"/>
<path d="M24.372 72.9861C24.3721 73.2598 24.3183 73.5308 24.2136 73.7837C24.109 74.0365 23.9555 74.2663 23.7621 74.4599C23.5686 74.6534 23.3389 74.807 23.086 74.9117C22.8332 75.0165 22.5622 75.0704 22.2885 75.0704C22.0149 75.0704 21.7439 75.0165 21.4911 74.9117C21.2382 74.807 21.0085 74.6534 20.815 74.4599C20.6216 74.2663 20.4681 74.0365 20.3634 73.7837C20.2588 73.5308 20.205 73.2598 20.2051 72.9861C20.205 72.7124 20.2588 72.4414 20.3634 72.1886C20.4681 71.9357 20.6216 71.7059 20.815 71.5124C21.0085 71.3188 21.2382 71.1653 21.4911 71.0605C21.7439 70.9558 22.0149 70.9019 22.2885 70.9019C22.5622 70.9019 22.8332 70.9558 23.086 71.0605C23.3389 71.1653 23.5686 71.3188 23.7621 71.5124C23.9555 71.7059 24.109 71.9357 24.2136 72.1886C24.3183 72.4414 24.3721 72.7124 24.372 72.9861Z" fill="white"/>
<path d="M29.6572 62.4148C29.6573 62.6885 29.6035 62.9595 29.4988 63.2124C29.3941 63.4653 29.2407 63.695 29.0472 63.8886C28.8537 64.0821 28.624 64.2357 28.3712 64.3404C28.1184 64.4452 27.8474 64.4991 27.5737 64.4991C27.3 64.4991 27.029 64.4452 26.7762 64.3404C26.5234 64.2357 26.2937 64.0821 26.1002 63.8886C25.9067 63.695 25.7533 63.4653 25.6486 63.2124C25.5439 62.9595 25.4901 62.6885 25.4902 62.4148C25.4901 62.1412 25.5439 61.8701 25.6486 61.6173C25.7533 61.3644 25.9067 61.1346 26.1002 60.9411C26.2937 60.7475 26.5234 60.594 26.7762 60.4892C27.029 60.3845 27.3 60.3306 27.5737 60.3306C27.8474 60.3306 28.1184 60.3845 28.3712 60.4892C28.624 60.594 28.8537 60.7475 29.0472 60.9411C29.2407 61.1346 29.3941 61.3644 29.4988 61.6173C29.6035 61.8701 29.6573 62.1412 29.6572 62.4148Z" fill="white"/>
<path d="M29.6572 67.7C29.6573 67.9737 29.6035 68.2447 29.4988 68.4975C29.3941 68.7504 29.2407 68.9802 29.0472 69.1737C28.8537 69.3673 28.624 69.5208 28.3712 69.6256C28.1184 69.7303 27.8474 69.7842 27.5737 69.7842C27.3 69.7842 27.029 69.7303 26.7762 69.6256C26.5234 69.5208 26.2937 69.3673 26.1002 69.1737C25.9067 68.9802 25.7533 68.7504 25.6486 68.4975C25.5439 68.2447 25.4901 67.9737 25.4902 67.7C25.4901 67.4263 25.5439 67.1553 25.6486 66.9024C25.7533 66.6496 25.9067 66.4198 26.1002 66.2262C26.2937 66.0327 26.5234 65.8791 26.7762 65.7744C27.029 65.6696 27.3 65.6157 27.5737 65.6157C27.8474 65.6157 28.1184 65.6696 28.3712 65.7744C28.624 65.8791 28.8537 66.0327 29.0472 66.2262C29.2407 66.4198 29.3941 66.6496 29.4988 66.9024C29.6035 67.1553 29.6573 67.4263 29.6572 67.7Z" fill="white"/>
<path d="M29.6572 72.9861C29.6573 73.2598 29.6035 73.5308 29.4988 73.7837C29.3941 74.0365 29.2407 74.2663 29.0472 74.4599C28.8537 74.6534 28.624 74.807 28.3712 74.9117C28.1184 75.0165 27.8474 75.0704 27.5737 75.0704C27.3 75.0704 27.029 75.0165 26.7762 74.9117C26.5234 74.807 26.2937 74.6534 26.1002 74.4599C25.9067 74.2663 25.7533 74.0365 25.6486 73.7837C25.5439 73.5308 25.4901 73.2598 25.4902 72.9861C25.4901 72.7124 25.5439 72.4414 25.6486 72.1886C25.7533 71.9357 25.9067 71.7059 26.1002 71.5124C26.2937 71.3188 26.5234 71.1653 26.7762 71.0605C27.029 70.9558 27.3 70.9019 27.5737 70.9019C27.8474 70.9019 28.1184 70.9558 28.3712 71.0605C28.624 71.1653 28.8537 71.3188 29.0472 71.5124C29.2407 71.7059 29.3941 71.9357 29.4988 72.1886C29.6035 72.4414 29.6573 72.7124 29.6572 72.9861Z" fill="white"/>
<path d="M34.9443 62.4148C34.9444 62.6885 34.8906 62.9595 34.7859 63.2124C34.6813 63.4653 34.5278 63.695 34.3343 63.8886C34.1408 64.0821 33.9111 64.2357 33.6583 64.3404C33.4055 64.4452 33.1345 64.4991 32.8608 64.4991C32.5871 64.4991 32.3161 64.4452 32.0633 64.3404C31.8105 64.2357 31.5808 64.0821 31.3873 63.8886C31.1938 63.695 31.0404 63.4653 30.9357 63.2124C30.8311 62.9595 30.7772 62.6885 30.7773 62.4148C30.7772 62.1412 30.8311 61.8701 30.9357 61.6173C31.0404 61.3644 31.1938 61.1346 31.3873 60.9411C31.5808 60.7475 31.8105 60.594 32.0633 60.4892C32.3161 60.3845 32.5871 60.3306 32.8608 60.3306C33.1345 60.3306 33.4055 60.3845 33.6583 60.4892C33.9111 60.594 34.1408 60.7475 34.3343 60.9411C34.5278 61.1346 34.6813 61.3644 34.7859 61.6173C34.8906 61.8701 34.9444 62.1412 34.9443 62.4148Z" fill="white"/>
<path d="M34.9443 67.7C34.9444 67.9737 34.8906 68.2447 34.7859 68.4975C34.6813 68.7504 34.5278 68.9802 34.3343 69.1737C34.1408 69.3673 33.9111 69.5208 33.6583 69.6256C33.4055 69.7303 33.1345 69.7842 32.8608 69.7842C32.5871 69.7842 32.3161 69.7303 32.0633 69.6256C31.8105 69.5208 31.5808 69.3673 31.3873 69.1737C31.1938 68.9802 31.0404 68.7504 30.9357 68.4975C30.8311 68.2447 30.7772 67.9737 30.7773 67.7C30.7772 67.4263 30.8311 67.1553 30.9357 66.9024C31.0404 66.6496 31.1938 66.4198 31.3873 66.2262C31.5808 66.0327 31.8105 65.8791 32.0633 65.7744C32.3161 65.6696 32.5871 65.6157 32.8608 65.6157C33.1345 65.6157 33.4055 65.6696 33.6583 65.7744C33.9111 65.8791 34.1408 66.0327 34.3343 66.2262C34.5278 66.4198 34.6813 66.6496 34.7859 66.9024C34.8906 67.1553 34.9444 67.4263 34.9443 67.7Z" fill="white"/>
<path d="M34.9443 72.9861C34.9444 73.2598 34.8906 73.5308 34.7859 73.7837C34.6813 74.0365 34.5278 74.2663 34.3343 74.4599C34.1408 74.6534 33.9111 74.807 33.6583 74.9117C33.4055 75.0165 33.1345 75.0704 32.8608 75.0704C32.5871 75.0704 32.3161 75.0165 32.0633 74.9117C31.8105 74.807 31.5808 74.6534 31.3873 74.4599C31.1938 74.2663 31.0404 74.0365 30.9357 73.7837C30.8311 73.5308 30.7772 73.2598 30.7773 72.9861C30.7772 72.7124 30.8311 72.4414 30.9357 72.1886C31.0404 71.9357 31.1938 71.7059 31.3873 71.5124C31.5808 71.3188 31.8105 71.1653 32.0633 71.0605C32.3161 70.9558 32.5871 70.9019 32.8608 70.9019C33.1345 70.9019 33.4055 70.9558 33.6583 71.0605C33.9111 71.1653 34.1408 71.3188 34.3343 71.5124C34.5278 71.7059 34.6813 71.9357 34.7859 72.1886C34.8906 72.4414 34.9444 72.7124 34.9443 72.9861Z" fill="white"/>
<path d="M40.2294 62.4148C40.2295 62.6885 40.1757 62.9595 40.0711 63.2124C39.9664 63.4653 39.813 63.695 39.6195 63.8886C39.426 64.0821 39.1963 64.2357 38.9435 64.3404C38.6906 64.4452 38.4196 64.4991 38.146 64.4991C37.8723 64.4991 37.6013 64.4452 37.3485 64.3404C37.0956 64.2357 36.8659 64.0821 36.6725 63.8886C36.479 63.695 36.3255 63.4653 36.2209 63.2124C36.1162 62.9595 36.0624 62.6885 36.0625 62.4148C36.0624 62.1412 36.1162 61.8701 36.2209 61.6173C36.3255 61.3644 36.479 61.1346 36.6725 60.9411C36.8659 60.7475 37.0956 60.594 37.3485 60.4892C37.6013 60.3845 37.8723 60.3306 38.146 60.3306C38.4196 60.3306 38.6906 60.3845 38.9435 60.4892C39.1963 60.594 39.426 60.7475 39.6195 60.9411C39.813 61.1346 39.9664 61.3644 40.0711 61.6173C40.1757 61.8701 40.2295 62.1412 40.2294 62.4148Z" fill="white"/>
<path d="M40.2294 67.7C40.2295 67.9737 40.1757 68.2447 40.0711 68.4975C39.9664 68.7504 39.813 68.9802 39.6195 69.1737C39.426 69.3673 39.1963 69.5208 38.9435 69.6256C38.6906 69.7303 38.4196 69.7842 38.146 69.7842C37.8723 69.7842 37.6013 69.7303 37.3485 69.6256C37.0956 69.5208 36.8659 69.3673 36.6725 69.1737C36.479 68.9802 36.3255 68.7504 36.2209 68.4975C36.1162 68.2447 36.0624 67.9737 36.0625 67.7C36.0624 67.4263 36.1162 67.1553 36.2209 66.9024C36.3255 66.6496 36.479 66.4198 36.6725 66.2262C36.8659 66.0327 37.0956 65.8791 37.3485 65.7744C37.6013 65.6696 37.8723 65.6157 38.146 65.6157C38.4196 65.6157 38.6906 65.6696 38.9435 65.7744C39.1963 65.8791 39.426 66.0327 39.6195 66.2262C39.813 66.4198 39.9664 66.6496 40.0711 66.9024C40.1757 67.1553 40.2295 67.4263 40.2294 67.7Z" fill="white"/>
<path d="M40.2294 72.9861C40.2295 73.2598 40.1757 73.5308 40.0711 73.7837C39.9664 74.0365 39.813 74.2663 39.6195 74.4599C39.426 74.6534 39.1963 74.807 38.9435 74.9117C38.6906 75.0165 38.4196 75.0704 38.146 75.0704C37.8723 75.0704 37.6013 75.0165 37.3485 74.9117C37.0956 74.807 36.8659 74.6534 36.6725 74.4599C36.479 74.2663 36.3255 74.0365 36.2209 73.7837C36.1162 73.5308 36.0624 73.2598 36.0625 72.9861C36.0624 72.7124 36.1162 72.4414 36.2209 72.1886C36.3255 71.9357 36.479 71.7059 36.6725 71.5124C36.8659 71.3188 37.0956 71.1653 37.3485 71.0605C37.6013 70.9558 37.8723 70.9019 38.146 70.9019C38.4196 70.9019 38.6906 70.9558 38.9435 71.0605C39.1963 71.1653 39.426 71.3188 39.6195 71.5124C39.813 71.7059 39.9664 71.9357 40.0711 72.1886C40.1757 72.4414 40.2295 72.7124 40.2294 72.9861Z" fill="white"/>
<path d="M45.5146 62.4148C45.5147 62.6885 45.4609 62.9595 45.3562 63.2124C45.2516 63.4653 45.0981 63.695 44.9046 63.8886C44.7112 64.0821 44.4814 64.2357 44.2286 64.3404C43.9758 64.4452 43.7048 64.4991 43.4311 64.4991C43.1575 64.4991 42.8865 64.4452 42.6336 64.3404C42.3808 64.2357 42.1511 64.0821 41.9576 63.8886C41.7641 63.695 41.6107 63.4653 41.506 63.2124C41.4014 62.9595 41.3476 62.6885 41.3477 62.4148C41.3476 62.1412 41.4014 61.8701 41.506 61.6173C41.6107 61.3644 41.7641 61.1346 41.9576 60.9411C42.1511 60.7475 42.3808 60.594 42.6336 60.4892C42.8865 60.3845 43.1575 60.3306 43.4311 60.3306C43.7048 60.3306 43.9758 60.3845 44.2286 60.4892C44.4814 60.594 44.7112 60.7475 44.9046 60.9411C45.0981 61.1346 45.2516 61.3644 45.3562 61.6173C45.4609 61.8701 45.5147 62.1412 45.5146 62.4148Z" fill="white"/>
<path d="M45.5146 67.7C45.5147 67.9737 45.4609 68.2447 45.3562 68.4975C45.2516 68.7504 45.0981 68.9802 44.9046 69.1737C44.7112 69.3673 44.4814 69.5208 44.2286 69.6256C43.9758 69.7303 43.7048 69.7842 43.4311 69.7842C43.1575 69.7842 42.8865 69.7303 42.6336 69.6256C42.3808 69.5208 42.1511 69.3673 41.9576 69.1737C41.7641 68.9802 41.6107 68.7504 41.506 68.4975C41.4014 68.2447 41.3476 67.9737 41.3477 67.7C41.3476 67.4263 41.4014 67.1553 41.506 66.9024C41.6107 66.6496 41.7641 66.4198 41.9576 66.2262C42.1511 66.0327 42.3808 65.8791 42.6336 65.7744C42.8865 65.6696 43.1575 65.6157 43.4311 65.6157C43.7048 65.6157 43.9758 65.6696 44.2286 65.7744C44.4814 65.8791 44.7112 66.0327 44.9046 66.2262C45.0981 66.4198 45.2516 66.6496 45.3562 66.9024C45.4609 67.1553 45.5147 67.4263 45.5146 67.7Z" fill="white"/>
<path d="M45.5146 72.9861C45.5147 73.2598 45.4609 73.5308 45.3562 73.7837C45.2516 74.0365 45.0981 74.2663 44.9046 74.4599C44.7112 74.6534 44.4814 74.807 44.2286 74.9117C43.9758 75.0165 43.7048 75.0704 43.4311 75.0704C43.1575 75.0704 42.8865 75.0165 42.6336 74.9117C42.3808 74.807 42.1511 74.6534 41.9576 74.4599C41.7641 74.2663 41.6107 74.0365 41.506 73.7837C41.4014 73.5308 41.3476 73.2598 41.3477 72.9861C41.3476 72.7124 41.4014 72.4414 41.506 72.1886C41.6107 71.9357 41.7641 71.7059 41.9576 71.5124C42.1511 71.3188 42.3808 71.1653 42.6336 71.0605C42.8865 70.9558 43.1575 70.9019 43.4311 70.9019C43.7048 70.9019 43.9758 70.9558 44.2286 71.0605C44.4814 71.1653 44.7112 71.3188 44.9046 71.5124C45.0981 71.7059 45.2516 71.9357 45.3562 72.1886C45.4609 72.4414 45.5147 72.7124 45.5146 72.9861Z" fill="white"/>
<path d="M50.8017 62.4148C50.8018 62.6885 50.748 62.9595 50.6433 63.2124C50.5387 63.4653 50.3852 63.695 50.1917 63.8886C49.9983 64.0821 49.7686 64.2357 49.5157 64.3404C49.2629 64.4452 48.9919 64.4991 48.7182 64.4991C48.4446 64.4991 48.1736 64.4452 47.9207 64.3404C47.6679 64.2357 47.4382 64.0821 47.2447 63.8886C47.0512 63.695 46.8978 63.4653 46.7931 63.2124C46.6885 62.9595 46.6347 62.6885 46.6348 62.4148C46.6347 62.1412 46.6885 61.8701 46.7931 61.6173C46.8978 61.3644 47.0512 61.1346 47.2447 60.9411C47.4382 60.7475 47.6679 60.594 47.9207 60.4892C48.1736 60.3845 48.4446 60.3306 48.7182 60.3306C48.9919 60.3306 49.2629 60.3845 49.5157 60.4892C49.7686 60.594 49.9983 60.7475 50.1917 60.9411C50.3852 61.1346 50.5387 61.3644 50.6433 61.6173C50.748 61.8701 50.8018 62.1412 50.8017 62.4148Z" fill="white"/>
<path d="M50.8017 67.701C50.8018 67.9746 50.748 68.2456 50.6433 68.4985C50.5387 68.7514 50.3852 68.9812 50.1917 69.1747C49.9983 69.3683 49.7686 69.5218 49.5157 69.6266C49.2629 69.7313 48.9919 69.7852 48.7182 69.7852C48.4446 69.7852 48.1736 69.7313 47.9207 69.6266C47.6679 69.5218 47.4382 69.3683 47.2447 69.1747C47.0512 68.9812 46.8978 68.7514 46.7931 68.4985C46.6885 68.2456 46.6347 67.9746 46.6348 67.701C46.6347 67.4273 46.6885 67.1563 46.7931 66.9034C46.8978 66.6505 47.0512 66.4208 47.2447 66.2272C47.4382 66.0337 47.6679 65.8801 47.9207 65.7754C48.1736 65.6706 48.4446 65.6167 48.7182 65.6167C48.9919 65.6167 49.2629 65.6706 49.5157 65.7754C49.7686 65.8801 49.9983 66.0337 50.1917 66.2272C50.3852 66.4208 50.5387 66.6505 50.6433 66.9034C50.748 67.1563 50.8018 67.4273 50.8017 67.701Z" fill="white"/>
<path d="M50.8017 72.9871C50.8018 73.2608 50.748 73.5318 50.6433 73.7846C50.5387 74.0375 50.3852 74.2673 50.1917 74.4608C49.9983 74.6544 49.7686 74.8079 49.5157 74.9127C49.2629 75.0174 48.9919 75.0714 48.7182 75.0714C48.4446 75.0714 48.1736 75.0174 47.9207 74.9127C47.6679 74.8079 47.4382 74.6544 47.2447 74.4608C47.0512 74.2673 46.8978 74.0375 46.7931 73.7846C46.6885 73.5318 46.6347 73.2608 46.6348 72.9871C46.6347 72.7134 46.6885 72.4424 46.7931 72.1895C46.8978 71.9367 47.0512 71.7069 47.2447 71.5133C47.4382 71.3198 47.6679 71.1663 47.9207 71.0615C48.1736 70.9567 48.4446 70.9028 48.7182 70.9028C48.9919 70.9028 49.2629 70.9567 49.5157 71.0615C49.7686 71.1663 49.9983 71.3198 50.1917 71.5133C50.3852 71.7069 50.5387 71.9367 50.6433 72.1895C50.748 72.4424 50.8018 72.7134 50.8017 72.9871Z" fill="white"/>
<path d="M50.8017 57.1297C50.8018 57.4033 50.748 57.6744 50.6433 57.9272C50.5387 58.1801 50.3852 58.4099 50.1917 58.6034C49.9983 58.797 49.7686 58.9505 49.5157 59.0553C49.2629 59.16 48.9919 59.2139 48.7182 59.2139C48.4446 59.2139 48.1736 59.16 47.9207 59.0553C47.6679 58.9505 47.4382 58.797 47.2447 58.6034C47.0512 58.4099 46.8978 58.1801 46.7931 57.9272C46.6885 57.6744 46.6347 57.4033 46.6348 57.1297C46.6347 56.856 46.6885 56.585 46.7931 56.3321C46.8978 56.0792 47.0512 55.8495 47.2447 55.6559C47.4382 55.4624 47.6679 55.3088 47.9207 55.2041C48.1736 55.0993 48.4446 55.0454 48.7182 55.0454C48.9919 55.0454 49.2629 55.0993 49.5157 55.2041C49.7686 55.3088 49.9983 55.4624 50.1917 55.6559C50.3852 55.8495 50.5387 56.0792 50.6433 56.3321C50.748 56.585 50.8018 56.856 50.8017 57.1297Z" fill="white"/>
<path d="M50.8017 78.2722C50.8018 78.5459 50.748 78.8169 50.6433 79.0698C50.5387 79.3227 50.3852 79.5524 50.1917 79.746C49.9983 79.9395 49.7686 80.0931 49.5157 80.1978C49.2629 80.3026 48.9919 80.3565 48.7182 80.3565C48.4446 80.3565 48.1736 80.3026 47.9207 80.1978C47.6679 80.0931 47.4382 79.9395 47.2447 79.746C47.0512 79.5524 46.8978 79.3227 46.7931 79.0698C46.6885 78.8169 46.6347 78.5459 46.6348 78.2722C46.6347 77.9986 46.6885 77.7276 46.7931 77.4747C46.8978 77.2218 47.0512 76.9921 47.2447 76.7985C47.4382 76.6049 47.6679 76.4514 47.9207 76.3467C48.1736 76.2419 48.4446 76.188 48.7182 76.188C48.9919 76.188 49.2629 76.2419 49.5157 76.3467C49.7686 76.4514 49.9983 76.6049 50.1917 76.7985C50.3852 76.9921 50.5387 77.2218 50.6433 77.4747C50.748 77.7276 50.8018 77.9986 50.8017 78.2722Z" fill="white"/>
<path d="M56.0869 62.4148C56.087 62.6885 56.0331 62.9595 55.9285 63.2124C55.8238 63.4653 55.6704 63.695 55.4769 63.8886C55.2834 64.0821 55.0537 64.2357 54.8009 64.3404C54.5481 64.4452 54.2771 64.4991 54.0034 64.4991C53.7297 64.4991 53.4587 64.4452 53.2059 64.3404C52.9531 64.2357 52.7234 64.0821 52.5299 63.8886C52.3364 63.695 52.1829 63.4653 52.0783 63.2124C51.9736 62.9595 51.9198 62.6885 51.9199 62.4148C51.9198 62.1412 51.9736 61.8701 52.0783 61.6173C52.1829 61.3644 52.3364 61.1346 52.5299 60.9411C52.7234 60.7475 52.9531 60.594 53.2059 60.4892C53.4587 60.3845 53.7297 60.3306 54.0034 60.3306C54.2771 60.3306 54.5481 60.3845 54.8009 60.4892C55.0537 60.594 55.2834 60.7475 55.4769 60.9411C55.6704 61.1346 55.8238 61.3644 55.9285 61.6173C56.0331 61.8701 56.087 62.1412 56.0869 62.4148Z" fill="white"/>
<path d="M56.0869 67.701C56.087 67.9746 56.0331 68.2456 55.9285 68.4985C55.8238 68.7514 55.6704 68.9812 55.4769 69.1747C55.2834 69.3683 55.0537 69.5218 54.8009 69.6266C54.5481 69.7313 54.2771 69.7852 54.0034 69.7852C53.7297 69.7852 53.4587 69.7313 53.2059 69.6266C52.9531 69.5218 52.7234 69.3683 52.5299 69.1747C52.3364 68.9812 52.1829 68.7514 52.0783 68.4985C51.9736 68.2456 51.9198 67.9746 51.9199 67.701C51.9198 67.4273 51.9736 67.1563 52.0783 66.9034C52.1829 66.6505 52.3364 66.4208 52.5299 66.2272C52.7234 66.0337 52.9531 65.8801 53.2059 65.7754C53.4587 65.6706 53.7297 65.6167 54.0034 65.6167C54.2771 65.6167 54.5481 65.6706 54.8009 65.7754C55.0537 65.8801 55.2834 66.0337 55.4769 66.2272C55.6704 66.4208 55.8238 66.6505 55.9285 66.9034C56.0331 67.1563 56.087 67.4273 56.0869 67.701Z" fill="white"/>
<path d="M56.0869 72.9871C56.087 73.2608 56.0331 73.5318 55.9285 73.7846C55.8238 74.0375 55.6704 74.2673 55.4769 74.4608C55.2834 74.6544 55.0537 74.8079 54.8009 74.9127C54.5481 75.0174 54.2771 75.0714 54.0034 75.0714C53.7297 75.0714 53.4587 75.0174 53.2059 74.9127C52.9531 74.8079 52.7234 74.6544 52.5299 74.4608C52.3364 74.2673 52.1829 74.0375 52.0783 73.7846C51.9736 73.5318 51.9198 73.2608 51.9199 72.9871C51.9198 72.7134 51.9736 72.4424 52.0783 72.1895C52.1829 71.9367 52.3364 71.7069 52.5299 71.5133C52.7234 71.3198 52.9531 71.1663 53.2059 71.0615C53.4587 70.9567 53.7297 70.9028 54.0034 70.9028C54.2771 70.9028 54.5481 70.9567 54.8009 71.0615C55.0537 71.1663 55.2834 71.3198 55.4769 71.5133C55.6704 71.7069 55.8238 71.9367 55.9285 72.1895C56.0331 72.4424 56.087 72.7134 56.0869 72.9871Z" fill="white"/>
<path d="M61.372 67.701C61.3721 67.9746 61.3183 68.2456 61.2136 68.4985C61.109 68.7514 60.9555 68.9812 60.7621 69.1747C60.5686 69.3683 60.3389 69.5218 60.086 69.6266C59.8332 69.7313 59.5622 69.7852 59.2885 69.7852C59.0149 69.7852 58.7439 69.7313 58.4911 69.6266C58.2382 69.5218 58.0085 69.3683 57.815 69.1747C57.6216 68.9812 57.4681 68.7514 57.3634 68.4985C57.2588 68.2456 57.205 67.9746 57.2051 67.701C57.205 67.4273 57.2588 67.1563 57.3634 66.9034C57.4681 66.6505 57.6216 66.4208 57.815 66.2272C58.0085 66.0337 58.2382 65.8801 58.4911 65.7754C58.7439 65.6706 59.0149 65.6167 59.2885 65.6167C59.5622 65.6167 59.8332 65.6706 60.086 65.7754C60.3389 65.8801 60.5686 66.0337 60.7621 66.2272C60.9555 66.4208 61.109 66.6505 61.2136 66.9034C61.3183 67.1563 61.3721 67.4273 61.372 67.701Z" fill="white"/>
<path fill-rule="evenodd" clip-rule="evenodd" d="M32.287 29.2026C31.2851 36.9282 23.6186 42.1374 23.6786 49.598C23.616 53.498 26.9338 59.4901 33.479 59.266C36.9563 59.2194 39.7648 57.7676 41.5391 55.6297C44.8167 51.3914 43.7911 45.9631 41.6853 41.4627C39.2898 36.7759 35.1251 33.0712 32.287 29.2026Z" fill="white"/>
<path fill-rule="evenodd" clip-rule="evenodd" d="M36.3223 39.2681C36.1268 40.7753 34.631 41.7917 34.6427 43.2473C34.6305 44.0081 35.2778 45.1772 36.5548 45.1335C37.2333 45.1244 37.7812 44.8412 38.1274 44.4241C38.7668 43.5972 38.5409 42.5381 38.1301 41.66C37.6627 40.7456 36.876 40.0228 36.3223 39.2681Z" fill="white"/>
<path d="M203.485 37.6328L197.719 54.5902V55.6375H202.32V59.6212H197.719V63.599H190.08V59.6212H185.658V55.6375H190.08V54.5902L183.506 37.6328H190.931L193.994 46.9196L196.852 37.6328" fill="white"/>
<path d="M82.6641 31.4097H91.2165V40.5001L96.9144 31.4097H106.285L99.1476 41.9076L105.11 50.6931H107.606V57.3434H100.654V54.5696H97.6363L91.2165 45.2311V54.5696H82.6641V31.4097Z" fill="white"/>
<path d="M150.08 31.0513H161.365L165.72 45.3615L170.056 31.0513H181.302V54.5701H174.297V36.6342L168.863 54.5701H162.52L157.105 36.6342V54.5701H150.08V31.0513Z" fill="white"/>
<path d="M206.119 37.6328H213.166V43.1279H217.784V37.6328H224.83V54.1622H217.784V47.1815H213.166V54.1622H206.119V37.6328Z" fill="white"/>
<path d="M268.022 37.6328V54.1622H262.181V45.3662L256.29 54.1622H250.221V37.6328H256.062V46.4288L261.952 37.6328H268.022Z" fill="white"/>
<path d="M253 30H255.609C255.743 30.7701 256.107 31.3586 256.703 31.7656C257.312 32.1727 258.12 32.3762 259.13 32.3762C260.139 32.3762 260.942 32.1727 261.538 31.7656C262.146 31.3586 262.517 30.7701 262.651 30H265.26C265.187 31.5842 264.621 32.7998 263.563 33.6468C262.505 34.4829 261.027 34.9009 259.13 34.9009C257.233 34.9009 255.755 34.4829 254.697 33.6468C253.639 32.7998 253.073 31.5842 253 30Z" fill="white"/>
<path d="M272.33 54.1622V31.3359H291.226V37.2146H280.988V54.1622H272.33Z" fill="white"/>
<path d="M317.82 43.8609C318.825 43.8639 319.822 43.9512 320.752 43.8734C324.31 43.5638 324.258 40.8148 320.668 40.5902C318.874 40.5929 316.479 41.2412 315.271 41.7652V37.9428C317.772 37.4738 320.77 37.1226 323.414 37.1824C326.719 37.3407 331.178 37.4982 331.543 41.5734C331.543 43.5215 330.352 44.7464 327.97 45.2482C330.657 45.8484 332 47.2553 332 49.4691C331.832 53.8132 327.166 54.2329 323.734 54.5709C320.714 54.7925 318.106 54.4772 315.23 53.7638V48.8985C317.187 49.5866 319.303 50.58 321.453 50.2398C324.883 49.6 324.68 47.5396 321.288 47.0688C320.134 46.979 318.856 47.1225 317.82 47.1225V43.8609Z" fill="white"/>
<path d="M302.737 37.2249C300.193 37.199 297.677 37.5739 295.189 38.0664V42.1006C297.217 41.0749 299.438 40.8264 301.673 40.7393C303.487 40.5946 306.174 41.2575 306.178 43.5855H302.737C299.583 43.5856 297.262 44.0416 295.783 44.9468C294.314 45.852 293.58 47.2654 293.58 49.2037C293.58 50.7976 294.187 52.0858 295.362 53.0894C296.548 54.0831 298.073 54.5991 299.965 54.5991C301.369 54.5991 302.55 54.3587 303.529 53.9061C304.508 53.4437 305.394 52.707 306.178 51.7034V54.1536H312.86V44.724C312.86 42.0774 312.126 40.1777 310.657 39.0069C309.2 37.8262 306.033 37.2249 302.737 37.2249ZM306.178 46.7287C306.302 48.0317 305.59 48.8331 304.828 49.8439C302.995 50.9741 301.368 50.5366 301.177 48.696C301.416 46.5337 303.46 46.4706 306.178 46.7287Z" fill="white"/>
<path d="M133.287 43.8609C134.292 43.8639 135.289 43.9512 136.219 43.8734C139.776 43.5638 139.725 40.8148 136.135 40.5902C134.341 40.5929 131.946 41.2412 130.737 41.7652V37.9428C133.239 37.4738 136.237 37.1226 138.881 37.1824C142.186 37.3407 146.645 37.4982 147.01 41.5734C147.01 43.5215 145.819 44.7464 143.437 45.2482C146.124 45.8484 147.467 47.2553 147.467 49.4691C147.299 53.8132 142.633 54.2329 139.201 54.5709C136.181 54.7925 133.572 54.4772 130.697 53.7638V48.8985C132.654 49.5866 134.77 50.58 136.92 50.2398C140.35 49.6 140.147 47.5396 136.755 47.0688C135.601 46.979 134.323 47.1225 133.287 47.1225V43.8609Z" fill="white"/>
<path d="M118.204 37.2249C115.66 37.199 113.144 37.5739 110.656 38.0664V42.1006C112.684 41.0749 114.905 40.8264 117.14 40.7393C118.954 40.5946 121.641 41.2575 121.644 43.5855H118.204C115.05 43.5856 112.729 44.0416 111.25 44.9468C109.781 45.852 109.047 47.2654 109.047 49.2037C109.047 50.7976 109.654 52.0858 110.829 53.0894C112.015 54.0831 113.54 54.5991 115.432 54.5991C116.835 54.5991 118.017 54.3587 118.996 53.9061C119.975 53.4437 120.861 52.707 121.644 51.7034V54.1536H128.327V44.724C128.327 42.0774 127.593 40.1777 126.124 39.0069C124.666 37.8262 121.5 37.2249 118.204 37.2249ZM121.644 46.7287C121.769 48.0317 121.057 48.8331 120.295 49.8439C118.462 50.9741 116.835 50.5366 116.644 48.696C116.883 46.5337 118.926 46.4706 121.644 46.7287Z" fill="white"/>
<path d="M81.9492 59.485H83.4985L85.455 63.1745V59.485H86.7701V64.8644H85.2208L83.2643 61.1748V64.8644H81.9492V59.485ZM92.1885 63.8843H90.0194L89.6771 64.8644H88.2827L90.2752 59.485H91.929L93.9215 64.8644H92.5272L92.1885 63.8843ZM90.3653 62.8863H91.839L91.1039 60.7461L90.3653 62.8863ZM94.7013 59.4623H99.6591V60.5108H97.8756V64.8417H96.4884V60.5108H94.7013V59.4623ZM101 59.4623H102.388V64.8417H101V59.4623ZM106.76 60.4675C106.337 60.4675 106.009 60.6237 105.776 60.9359C105.543 61.2482 105.427 61.6878 105.427 62.2547C105.427 62.8191 105.543 63.2575 105.776 63.5698C106.009 63.8821 106.337 64.0382 106.76 64.0382C107.185 64.0382 107.514 63.8821 107.747 63.5698C107.98 63.2575 108.097 62.8191 108.097 62.2547C108.097 61.6878 107.98 61.2482 107.747 60.9359C107.514 60.6237 107.185 60.4675 106.76 60.4675ZM106.76 59.4623C107.625 59.4623 108.302 59.7097 108.792 60.2045C109.282 60.6993 109.527 61.3827 109.527 62.2547C109.527 63.1242 109.282 63.8064 108.792 64.3012C108.302 64.796 107.625 65.0434 106.76 65.0434C105.897 65.0434 105.22 64.796 104.728 64.3012C104.238 63.8064 103.993 63.1242 103.993 62.2547C103.993 61.3827 104.238 60.6993 104.728 60.2045C105.22 59.7097 105.897 59.4623 106.76 59.4623ZM111.553 59.4623H113.102L115.059 63.1518V59.4623H116.374V64.8417H114.824L112.868 61.1521V64.8417H111.553V59.4623ZM121.746 63.8616H119.577L119.234 64.8417H117.84L119.832 59.4623H121.486L123.479 64.8417H122.084L121.746 63.8616ZM119.923 62.8636H121.396L120.661 60.7234L119.923 62.8636ZM125.013 59.4623H126.4V63.7932H128.835V64.8417H125.013V59.4623ZM141.409 64.5689C141.155 64.701 140.889 64.8007 140.613 64.868C140.337 64.9352 140.049 64.9688 139.748 64.9688C138.853 64.9688 138.143 64.719 137.619 64.2194C137.095 63.7174 136.834 63.0376 136.834 62.1801C136.834 61.3201 137.095 60.6404 137.619 60.1407C138.143 59.6387 138.853 59.3877 139.748 59.3877C140.049 59.3877 140.337 59.4213 140.613 59.4886C140.889 59.5558 141.155 59.6555 141.409 59.7876V60.901C141.152 60.7256 140.899 60.5971 140.649 60.5155C140.399 60.4338 140.136 60.393 139.86 60.393C139.365 60.393 138.976 60.5515 138.693 60.8686C138.409 61.1856 138.268 61.6228 138.268 62.1801C138.268 62.735 138.409 63.1709 138.693 63.488C138.976 63.8051 139.365 63.9636 139.86 63.9636C140.136 63.9636 140.399 63.9228 140.649 63.8411C140.899 63.7594 141.152 63.6309 141.409 63.4556V64.5689ZM145.498 60.4675C145.075 60.4675 144.747 60.6237 144.514 60.9359C144.281 61.2482 144.165 61.6878 144.165 62.2547C144.165 62.8191 144.281 63.2575 144.514 63.5698C144.747 63.8821 145.075 64.0382 145.498 64.0382C145.923 64.0382 146.252 63.8821 146.485 63.5698C146.718 63.2575 146.835 62.8191 146.835 62.2547C146.835 61.6878 146.718 61.2482 146.485 60.9359C146.252 60.6237 145.923 60.4675 145.498 60.4675ZM145.498 59.4623C146.363 59.4623 147.04 59.7097 147.53 60.2045C148.02 60.6993 148.265 61.3827 148.265 62.2547C148.265 63.1242 148.02 63.8064 147.53 64.3012C147.04 64.796 146.363 65.0434 145.498 65.0434C144.635 65.0434 143.958 64.796 143.466 64.3012C142.976 63.8064 142.731 63.1242 142.731 62.2547C142.731 61.3827 142.976 60.6993 143.466 60.2045C143.958 59.7097 144.635 59.4623 145.498 59.4623ZM150.141 59.4623H151.907L153.132 62.3411L154.364 59.4623H156.126V64.8417H154.814V60.9071L153.575 63.8076H152.696L151.456 60.9071V64.8417H150.141V59.4623ZM158.048 59.4623H160.35C161.035 59.4623 161.56 59.6148 161.925 59.9199C162.292 60.2225 162.476 60.6549 162.476 61.217C162.476 61.7815 162.292 62.2162 161.925 62.5213C161.56 62.8239 161.035 62.9753 160.35 62.9753H159.435V64.8417H158.048V59.4623ZM159.435 60.4675V61.97H160.203C160.472 61.97 160.679 61.9052 160.826 61.7755C160.972 61.6433 161.046 61.4572 161.046 61.217C161.046 60.9768 160.972 60.7918 160.826 60.6621C160.679 60.5324 160.472 60.4675 160.203 60.4675H159.435ZM167.342 63.8843H165.173L164.83 64.8644H163.436L165.428 59.485H167.082L169.075 64.8644H167.68L167.342 63.8843ZM165.518 62.8863H166.992L166.257 60.7461L165.518 62.8863ZM170.576 59.485H172.126L174.082 63.1745V59.485H175.397V64.8644H173.848L171.892 61.1748V64.8644H170.576V59.485ZM176.802 59.485H178.319L179.544 61.4018L180.769 59.485H182.289L180.239 62.598V64.8644H178.852V62.598L176.802 59.485Z" fill="white"/>
<path d="M212.206 59.4627L210.156 62.5758V63.2676H210.956V63.9593H210.156V64.8421H208.769V63.9593H207.973V63.2676H208.769V62.5758L206.719 59.4627H208.236L209.461 61.3795L210.686 59.4627H212.206ZM213.771 64.8421V63.7936C214.382 63.7263 214.748 63.4945 214.87 63.0982C214.993 62.6995 215.054 61.8263 215.054 60.4788V59.4627H218.884V64.8421H217.497V60.5112H216.441V60.8391C216.441 62.1554 216.325 63.1186 216.092 63.7287C215.859 64.3365 215.085 64.7076 213.771 64.8421ZM227.995 59.4627H232.953V60.5112H231.169V64.8421H229.782V60.5112H227.995V59.4627ZM236.927 63.8981C237.218 63.8981 237.428 63.844 237.558 63.7359C237.697 63.6183 237.767 63.4477 237.767 63.2243C237.767 63.0057 237.697 62.8388 237.558 62.7235C237.431 62.6154 237.22 62.5613 236.927 62.5613H236.113V63.8981H236.927ZM239.154 63.1811C239.154 63.7528 238.979 64.1659 238.628 64.4205C238.241 64.7016 237.708 64.8421 237.028 64.8421H234.726V59.4627H236.113V61.5129H237.028C237.708 61.5129 238.241 61.6534 238.628 61.9344C238.979 62.189 239.154 62.6046 239.154 63.1811ZM239.63 59.4627H241.017V64.8421H239.63V59.4627ZM243.988 59.4627H245.375V61.6822L247.544 59.4627H249.115L246.978 61.6426L248.495 63.7936H249.234V64.8421V65.9987H247.85V64.8421H247.706L246.088 62.5505L245.375 63.2784V64.8421H243.988V59.4627ZM254.83 59.4627H256.218V61.6822L258.387 59.4627H259.958L257.821 61.6426L260.076 64.8421H258.549L256.931 62.5505L256.218 63.2784V64.8421H254.83V59.4627ZM265.21 60.468C264.787 60.468 264.459 60.6241 264.226 60.9364C263.993 61.2486 263.877 61.6882 263.877 62.2551C263.877 62.8196 263.993 63.2579 264.226 63.5702C264.459 63.8825 264.787 64.0386 265.21 64.0386C265.635 64.0386 265.964 63.8825 266.197 63.5702C266.43 63.2579 266.547 62.8196 266.547 62.2551C266.547 61.6882 266.43 61.2486 266.197 60.9364C265.964 60.6241 265.635 60.468 265.21 60.468ZM265.21 59.4627C266.075 59.4627 266.752 59.7101 267.242 60.2049C267.732 60.6998 267.977 61.3831 267.977 62.2551C267.977 63.1246 267.732 63.8068 267.242 64.3016C266.752 64.7965 266.075 65.0439 265.21 65.0439C264.348 65.0439 263.67 64.7965 263.178 64.3016C262.688 63.8068 262.443 63.1246 262.443 62.2551C262.443 61.3831 262.688 60.6998 263.178 60.2049C263.67 59.7101 264.348 59.4627 265.21 59.4627ZM271.298 59.4627H273.063L274.289 62.3416L275.521 59.4627H277.283V64.8421H275.971V60.9075L274.732 63.808H273.853L272.613 60.9075V64.8421H271.298V59.4627ZM285.117 59.4627V64.8421H283.73V60.5112H281.684V64.8421H280.296V59.4627H285.117ZM291.549 63.8621H289.38L289.037 64.8421H287.643L289.635 59.4627H291.289L293.282 64.8421H291.887L291.549 63.8621ZM289.726 62.864H291.199L290.464 60.7238L289.726 62.864ZM295.875 59.4627H297.262V61.5129H299.309V59.4627H300.696V64.8421H299.309V62.5613H297.262V64.8421H295.875V59.4627ZM308.527 59.4627V64.8421H307.212V61.1525L305.255 64.8421H303.706V59.4627H305.021V63.1522L306.978 59.4627H308.527ZM312.971 61.1525C312.971 61.4 313.034 61.5777 313.158 61.6858C313.286 61.7939 313.495 61.8479 313.785 61.8479H314.477V60.468H313.785C313.495 60.468 313.286 60.5208 313.158 60.6265C313.034 60.7322 312.971 60.9075 312.971 61.1525ZM311.332 64.8421L312.672 62.5577C312.49 62.4545 312.262 62.2743 311.991 62.0173C311.72 61.7579 311.584 61.4492 311.584 61.0913C311.584 60.5532 311.748 60.1473 312.078 59.8735C312.409 59.5996 312.929 59.4627 313.638 59.4627H315.864V64.8421H314.477V62.8064H314.005L312.809 64.8421H311.332ZM322.933 64.543C322.679 64.6751 322.413 64.7748 322.137 64.8421C321.861 64.9093 321.573 64.943 321.272 64.943C320.376 64.943 319.667 64.6932 319.143 64.1935C318.619 63.6915 318.358 63.0117 318.358 62.1542C318.358 61.2943 318.619 60.6145 319.143 60.1149C319.667 59.6128 320.376 59.3618 321.272 59.3618C321.573 59.3618 321.861 59.3955 322.137 59.4627C322.413 59.53 322.679 59.6297 322.933 59.7618V60.8751C322.676 60.6998 322.423 60.5713 322.173 60.4896C321.923 60.4079 321.66 60.3671 321.384 60.3671C320.889 60.3671 320.5 60.5256 320.217 60.8427C319.933 61.1598 319.792 61.5969 319.792 62.1542C319.792 62.7091 319.933 63.145 320.217 63.4621C320.5 63.7792 320.889 63.9377 321.384 63.9377C321.66 63.9377 321.923 63.8969 322.173 63.8152C322.423 63.7335 322.676 63.605 322.933 63.4297V64.543ZM327.583 63.8981C327.874 63.8981 328.084 63.844 328.213 63.7359C328.353 63.6183 328.422 63.4477 328.422 63.2243C328.422 63.0057 328.353 62.8388 328.213 62.7235C328.086 62.6154 327.876 62.5613 327.583 62.5613H326.769V63.8981H327.583ZM329.81 63.1811C329.81 63.7528 329.634 64.1659 329.283 64.4205C328.897 64.7016 328.364 64.8421 327.684 64.8421H325.381V59.4627H326.769V61.5129H327.684C328.364 61.5129 328.897 61.6534 329.283 61.9344C329.634 62.189 329.81 62.6046 329.81 63.1811ZM330.285 59.4627H331.672V64.8421H330.285V59.4627Z" fill="white"/>
<path d="M221.363 59.4624H226.321V60.5109H224.538V64.8418H223.15V60.5109H221.363V59.4624Z" fill="white"/>
<path d="M237.001 37.2249C234.457 37.199 231.941 37.5739 229.452 38.0664V42.1006C231.48 41.0749 233.702 40.8264 235.937 40.7393C237.751 40.5946 240.437 41.2575 240.441 43.5855H237.001C233.847 43.5856 231.526 44.0416 230.046 44.9468C228.578 45.852 227.844 47.2654 227.844 49.2037C227.844 50.7976 228.451 52.0858 229.626 53.0894C230.811 54.0831 232.336 54.5991 234.229 54.5991C235.632 54.5991 236.814 54.3587 237.793 53.9061C238.772 53.4437 239.658 52.707 240.441 51.7034V54.1536H247.124V44.724C247.124 42.0774 246.389 40.1777 244.921 39.0069C243.463 37.8262 240.297 37.2249 237.001 37.2249ZM240.441 46.7287C240.566 48.0317 239.853 48.8331 239.092 49.8439C237.258 50.9741 235.632 50.5366 235.441 48.696C235.68 46.5337 237.723 46.4706 240.441 46.7287Z" fill="white"/>
</svg>
